<?xml version="1.0" encoding="UTF-8"?>
<svg width="512" height="512" viewBox="0 0 512 512" fill="none" xmlns="http://www.w3.org/2000/svg">
  <circle cx="256" cy="256" r="256" fill="#FFE4EC"/>
  <path d="M339.5 206.5C339.5 206.5 354 177 369.5 177C385 177 400.5 191.5 400.5 206.5C400.5 221.5 385 236.5 369.5 236.5C354 236.5 339.5 221.5 339.5 206.5Z" fill="#FF69B4"/>
  <path d="M172.5 206.5C172.5 206.5 158 177 142.5 177C127 177 111.5 191.5 111.5 206.5C111.5 221.5 127 236.5 142.5 236.5C158 236.5 172.5 221.5 172.5 206.5Z" fill="#FF69B4"/>
  <path d="M256 177C188.5 177 136 229.5 136 297C136 364.5 188.5 417 256 417C323.5 417 376 364.5 376 297C376 229.5 323.5 177 256 177Z" fill="white"/>
  <path d="M256 207C203.5 207 161 249.5 161 302C161 354.5 203.5 397 256 397C308.5 397 351 354.5 351 302C351 249.5 308.5 207 256 207Z" fill="#FFE4EC"/>
  <path d="M226 262C226 272.493 217.493 281 207 281C196.507 281 188 272.493 188 262C188 251.507 196.507 243 207 243C217.493 243 226 251.507 226 262Z" fill="#333333"/>
  <path d="M324 262C324 272.493 315.493 281 305 281C294.507 281 286 272.493 286 262C286 251.507 294.507 243 305 243C315.493 243 324 251.507 324 262Z" fill="#333333"/>
  <path d="M256 302C239.5 302 226 315.5 226 332C226 348.5 239.5 362 256 362C272.5 362 286 348.5 286 332C286 315.5 272.5 302 256 302Z" fill="#FF69B4"/>
  <path d="M226 262C226 264.761 223.761 267 221 267C218.239 267 216 264.761 216 262C216 259.239 218.239 257 221 257C223.761 257 226 259.239 226 262Z" fill="white"/>
  <path d="M324 262C324 264.761 321.761 267 319 267C316.239 267 314 264.761 314 262C314 259.239 316.239 257 319 257C321.761 257 324 259.239 324 262Z" fill="white"/>
  <path d="M256 332C245.507 332 237 323.493 237 313C237 302.507 245.507 294 256 294C266.493 294 275 302.507 275 313C275 323.493 266.493 332 256 332Z" fill="white"/>
  <path d="M246 332C246 334.761 243.761 337 241 337C238.239 337 236 334.761 236 332C236 329.239 238.239 327 241 327C243.761 327 246 329.239 246 332Z" fill="#333333"/>
  <path d="M276 332C276 334.761 273.761 337 271 337C268.239 337 266 334.761 266 332C266 329.239 268.239 327 271 327C273.761 327 276 329.239 276 332Z" fill="#333333"/>
  <path d="M256 347C249.373 347 244 341.627 244 335C244 328.373 249.373 323 256 323C262.627 323 268 328.373 268 335C268 341.627 262.627 347 256 347Z" fill="#FF69B4"/>
  <path d="M256 177C256 177 226 137 226 107C226 77 256 77 256 107C256 137 286 137 286 107C286 77 316 77 316 107C316 137 286 177 256 177Z" fill="#FF69B4"/>
  <path d="M256 387C236 387 221 372 221 352H231C231 366.359 242.641 377 257 377C271.359 377 283 366.359 283 352H293C293 372 278 387 256 387Z" fill="#333333"/>
</svg>
