<?xml version="1.0" encoding="UTF-8"?>
<svg width="512" height="512" viewBox="0 0 512 512" fill="none" xmlns="http://www.w3.org/2000/svg">
  <circle cx="256" cy="256" r="256" fill="#f8f9fa"/>
  <path d="M339.5 206.5C339.5 206.5 354 177 369.5 177C385 177 400.5 191.5 400.5 206.5C400.5 221.5 385 236.5 369.5 236.5C354 236.5 339.5 221.5 339.5 206.5Z" fill="#adb5bd"/>
  <path d="M172.5 206.5C172.5 206.5 158 177 142.5 177C127 177 111.5 191.5 111.5 206.5C111.5 221.5 127 236.5 142.5 236.5C158 236.5 172.5 221.5 172.5 206.5Z" fill="#adb5bd"/>
  <path d="M256 177C188.5 177 136 229.5 136 297C136 364.5 188.5 417 256 417C323.5 417 376 364.5 376 297C376 229.5 323.5 177 256 177Z" fill="white"/>
  <path d="M256 207C203.5 207 161 249.5 161 302C161 354.5 203.5 397 256 397C308.5 397 351 354.5 351 302C351 249.5 308.5 207 256 207Z" fill="#f8f9fa"/>
  <path d="M226 262C226 272.493 217.493 281 207 281C196.507 281 188 272.493 188 262C188 251.507 196.507 243 207 243C217.493 243 226 251.507 226 262Z" fill="#333333"/>
  <path d="M324 262C324 272.493 315.493 281 305 281C294.507 281 286 272.493 286 262C286 251.507 294.507 243 305 243C315.493 243 324 251.507 324 262Z" fill="#333333"/>
  <path d="M226 262C226 264.761 223.761 267 221 267C218.239 267 216 264.761 216 262C216 259.239 218.239 257 221 257C223.761 257 226 259.239 226 262Z" fill="white"/>
  <path d="M324 262C324 264.761 321.761 267 319 267C316.239 267 314 264.761 314 262C314 259.239 316.239 257 319 257C321.761 257 324 259.239 324 262Z" fill="white"/>
  <path d="M256 177C256 177 226 137 226 107C226 77 256 77 256 107C256 137 286 137 286 107C286 77 316 77 316 107C316 137 286 177 256 177Z" fill="#adb5bd"/>
  <path d="M256 387C236 387 221 372 221 352H231C231 366.359 242.641 377 257 377C271.359 377 283 366.359 283 352H293C293 372 278 387 256 387Z" fill="#333333"/>
  <!-- Sad tears -->
  <path d="M207 285C207 285 202 305 202 315" stroke="#6ea8fe" stroke-width="4" stroke-linecap="round"/>
  <path d="M305 285C305 285 310 305 310 315" stroke="#6ea8fe" stroke-width="4" stroke-linecap="round"/>
  <!-- Sad mouth -->
  <path d="M226 352C226 342 246 332 256 332C266 332 286 342 286 352" stroke="#333333" stroke-width="4" stroke-linecap="round"/>
</svg>
